<?xml version="1.0" encoding="utf-8"?>
<!-- Generator: Adobe Illustrator 16.0.0, SVG Export Plug-In . SVG Version: 6.00 Build 0)  -->
<!DOCTYPE svg PUBLIC "-//W3C//DTD SVG 1.1//EN" "http://www.w3.org/Graphics/SVG/1.1/DTD/svg11.dtd">
<svg version="1.1" id="Layer_1" xmlns="http://www.w3.org/2000/svg" xmlns:xlink="http://www.w3.org/1999/xlink" x="0px" y="0px"
	 width="64px" height="64px" viewBox="0 0 64 64" enable-background="new 0 0 64 64" xml:space="preserve">
<g id="secure_payment_gateway">
	<g id="macbook">
		<g>
			<path fill="#CFD8DC" d="M11.5,51.5v-26c0-0.553,0.447-1,1-1h39c0.553,0,1,0.447,1,1v26H11.5z"/>
		</g>
		<g>
			<g>
				<rect x="13" y="27" fill="#FFFFFF" width="37" height="23"/>
			</g>
			<g>
				<rect x="15" y="28" fill="#84FFFF" width="35" height="22"/>
			</g>
		</g>
		<g>
			<g>
				<path fill="#FFFFFF" d="M5.375,55.375c0.257,0.11,0.557,0.238,0.875,0.375C7.217,56.164,8.896,56.5,10,56.5h44
					c1.104,0,2.783-0.336,3.75-0.75c0,0,0.392-0.168,0.875-0.375S59.5,54.664,59.5,54.25V53.5h-55c0,0,0,0.336,0,0.75
					S4.891,55.168,5.375,55.375z"/>
			</g>
			<g>
				<polygon fill="#CFD8DC" points="57,56 7,56 5,55 59,55 				"/>
			</g>
			<g>
				<path fill="#37474F" d="M54,57H10c-1.179,0-2.912-0.348-3.947-0.79l-0.875-0.376C4.507,55.548,4,54.866,4,54.25V53h56v1.25
					c0,0.616-0.507,1.297-1.178,1.585l-0.875,0.375C56.912,56.652,55.179,57,54,57z M5,54v0.25c0,0.168,0.228,0.519,0.571,0.665
					l0.876,0.376C7.345,55.675,8.972,56,10,56h44c1.028,0,2.655-0.325,3.553-0.71l0.875-0.375C58.771,54.769,59,54.417,59,54.25V54
					H5z"/>
			</g>
		</g>
		<g>
			<polygon fill="#ECEFF1" points="38,55 26,55 25,54 39,54 			"/>
		</g>
	</g>
	<g>
		<path fill="#37474F" d="M34,8h-1v21.059c0.34,0.038,0.673,0.098,1,0.172V8z"/>
		<path fill="#37474F" d="M31,8h-1v21.231c0.327-0.075,0.66-0.135,1-0.172V8z"/>
		<path fill="#37474F" d="M29,14.5c0-2.481-2.019-4.5-4.5-4.5H23v1h1.5c1.93,0,3.5,1.57,3.5,3.5v15.449
			c0.323-0.161,0.656-0.303,1-0.424V14.5z"/>
		<path fill="#37474F" d="M39.5,11H41v-1h-1.5c-2.481,0-4.5,2.019-4.5,4.5v15.025c0.344,0.122,0.677,0.263,1,0.424V14.5
			C36,12.57,37.57,11,39.5,11z"/>
	</g>
	<g>
		<g>
			<g>
				<g>
					<g>
						<g>
							<g>
								<g>
									<g>
										<path fill="#FFFFFF" d="M32,46c-4.414,0-8-3.589-8-8s3.586-8,8-8s8,3.589,8,8S36.414,46,32,46z"/>
									</g>
								</g>
							</g>
						</g>
					</g>
				</g>
			</g>
		</g>
	</g>
	<g>
		<g>
			<g>
				<g>
					<g>
						<g>
							<g>
								<g>
									<g>
										<path fill="#FFE57F" d="M31.5,45c3.86,0,7-3.142,7-7s-3.14-7-7-7s-7,3.142-7,7S27.64,45,31.5,45z"/>
									</g>
								</g>
							</g>
						</g>
					</g>
				</g>
			</g>
		</g>
		<g>
			<g>
				<g>
					<g>
						<g>
							<g>
								<g>
									<g>
										<g>
											<path fill="#37474F" d="M32,31c3.86,0,7,3.142,7,7s-3.14,7-7,7s-7-3.142-7-7S28.14,31,32,31L32,31z M32,30
												c-4.411,0-8,3.589-8,8s3.589,8,8,8s8-3.589,8-8S36.411,30,32,30L32,30z"/>
										</g>
									</g>
								</g>
							</g>
						</g>
					</g>
				</g>
			</g>
		</g>
		<g>
			<g>
				<g>
					<g>
						<g>
							<g>
								<g>
									<g>
										<path fill="#FFD740" d="M32,43c2.758,0,5-2.244,5-5s-2.242-5-5-5s-5,2.244-5,5S29.242,43,32,43z"/>
									</g>
								</g>
							</g>
						</g>
						<g>
							<g>
								<g>
									<g>
										<path fill="#37474F" d="M26.5,38c0-3.033,2.467-5.5,5.5-5.5s5.5,2.467,5.5,5.5s-2.467,5.5-5.5,5.5S26.5,41.033,26.5,38z
											 M27.5,38c0,2.481,2.019,4.5,4.5,4.5s4.5-2.019,4.5-4.5s-2.019-4.5-4.5-4.5S27.5,35.519,27.5,38z"/>
									</g>
								</g>
							</g>
						</g>
					</g>
				</g>
			</g>
		</g>
	</g>
	<g id="encrypted_1_">
		<g>
			<g>
				<g>
					<g>
						<path fill="#FFFFFF" d="M55.112,33.698L50,36.863l-5.111-3.165c-1.923-1.188-3.598-2.937-3.598-6.241L41,17.727l9-4.09l9,4.09
							l-0.291,9.73C58.709,30.796,57.034,32.51,55.112,33.698z"/>
						<g>
							<polygon fill="#37474F" points="39.718,25 39.688,24 37,24 37,25 							"/>
							<path fill="#37474F" d="M52,37.389V51H12V25.5c0-0.275,0.225-0.5,0.5-0.5H27v-1H12.5c-0.827,0-1.5,0.673-1.5,1.5V52h42
								V36.771L52,37.389z"/>
							<polygon fill="#37474F" points="39.777,27 39.747,26 37,26 37,27 							"/>
							<polygon fill="#37474F" points="13,26 13,50 51,50 51,38.008 50,38.627 50,49 14,49 14,27 27,27 27,26 							"/>
						</g>
					</g>
				</g>
			</g>
		</g>
	</g>
	<g id="encrypted">
		<g>
			<g>
				<g>
					<g>
						<path fill="#ECEFF1" d="M55.112,33.698L50,36.863l-5.111-3.165c-1.923-1.188-3.598-2.937-3.598-6.241L41,17.727l9-4.09l9,4.09
							l-0.291,9.73C58.709,30.796,57.034,32.51,55.112,33.698z"/>
						<path fill="#37474F" d="M50,37.451l-5.375-3.328c-1.646-1.018-3.834-2.815-3.834-6.667L40.49,17.409L50,13.087l9.51,4.322
							l-0.301,10.063c0,3.835-2.188,5.634-3.834,6.651L50,37.451z M41.51,18.044l0.281,9.398c0,3.329,1.796,4.864,3.36,5.831
							L50,36.275l4.849-3.002c1.564-0.967,3.36-2.502,3.36-5.816l0.281-9.413L50,14.186L41.51,18.044z"/>
					</g>
				</g>
			</g>
		</g>
	</g>
	<g id="encryption_2_">
		<g>
			<g>
				<circle fill="#B2FF59" cx="50" cy="25" r="5.5"/>
			</g>
			<g>
				<path fill="#37474F" d="M54.787,23.497c0.151,0.478,0.255,0.976,0.255,1.503c0,2.78-2.262,5.042-5.042,5.042
					S44.958,27.78,44.958,25S47.22,19.958,50,19.958c1.137,0,2.175,0.392,3.019,1.029l0.631-0.687
					c-1.01-0.786-2.274-1.259-3.649-1.259c-3.285,0-5.958,2.673-5.958,5.958s2.673,5.958,5.958,5.958s5.958-2.673,5.958-5.958
					c0-0.809-0.163-1.579-0.456-2.282L54.787,23.497z"/>
			</g>
			<g>
				<g>
					<g>
						<g>
							<path fill="#37474F" d="M50,27c-0.004,0-0.008,0-0.012,0c-0.145-0.004-0.28-0.069-0.373-0.18l-2.5-3l0.77-0.641l2.133,2.561
								l5.114-5.578l0.736,0.676l-5.499,6C50.273,26.941,50.141,27,50,27z"/>
						</g>
					</g>
				</g>
			</g>
		</g>
	</g>
	<g>
		<rect x="8" y="10" fill="#37474F" width="1" height="1"/>
	</g>
	<g>
		<rect x="55" y="10" fill="#37474F" width="1" height="1"/>
	</g>
	<g>
		<rect x="19" y="10" fill="#37474F" width="2" height="1"/>
	</g>
	<g>
		<rect x="15" y="10" fill="#37474F" width="2" height="1"/>
	</g>
	<g>
		<rect x="11" y="10" fill="#37474F" width="2" height="1"/>
	</g>
	<g>
		<rect x="51" y="10" fill="#37474F" width="2" height="1"/>
	</g>
	<g>
		<rect x="47" y="10" fill="#37474F" width="2" height="1"/>
	</g>
	<g>
		<rect x="43" y="10" fill="#37474F" width="2" height="1"/>
	</g>
	<g>
		<rect x="33" y="5" fill="#37474F" width="1" height="1"/>
	</g>
	<g>
		<rect x="30" y="5" fill="#37474F" width="1" height="1"/>
	</g>
</g>
</svg>