<?xml version="1.0" encoding="iso-8859-1"?>
<!-- Generator: Adobe Illustrator 24.1.0, SVG Export Plug-In . SVG Version: 6.00 Build 0)  -->
<svg version="1.1" id="Layer_2" xmlns="http://www.w3.org/2000/svg" xmlns:xlink="http://www.w3.org/1999/xlink" x="0px" y="0px"
	 viewBox="0 0 48 48" style="enable-background:new 0 0 48 48;" xml:space="preserve">
<radialGradient id="SVGID_1_" cx="11.1765" cy="8.3929" r="40.3124" gradientUnits="userSpaceOnUse">
	<stop  offset="0" style="stop-color:#0370C8"/>
	<stop  offset="0.4844" style="stop-color:#036FC5"/>
	<stop  offset="0.7754" style="stop-color:#036ABD"/>
	<stop  offset="1" style="stop-color:#0362B0"/>
</radialGradient>
<path style="fill:url(#SVGID_1_);" d="M44,24c0,11.045-8.955,20-20,20S4,35.045,4,24S12.955,4,24,4S44,12.955,44,24z"/>
<radialGradient id="SVGID_2_" cx="24" cy="44.1082" r="16.1404" gradientUnits="userSpaceOnUse">
	<stop  offset="0" style="stop-color:#000000"/>
	<stop  offset="1" style="stop-color:#000000;stop-opacity:0"/>
</radialGradient>
<path style="fill:url(#SVGID_2_);" d="M24,44c5.795,0,10.998-2.48,14.651-6.418C36.177,31.943,30.552,28,24,28
	s-12.177,3.943-14.651,9.582C13.002,41.52,18.205,44,24,44z"/>
<radialGradient id="SVGID_3_" cx="24" cy="20" r="9.5" gradientUnits="userSpaceOnUse">
	<stop  offset="0" style="stop-color:#000000"/>
	<stop  offset="1" style="stop-color:#000000;stop-opacity:0"/>
</radialGradient>
<circle style="fill:url(#SVGID_3_);" cx="24" cy="20" r="9.5"/>
<linearGradient id="SVGID_4_" gradientUnits="userSpaceOnUse" x1="18.5729" y1="13.5729" x2="29.735" y2="24.735">
	<stop  offset="0" style="stop-color:#75DAFF"/>
	<stop  offset="1" style="stop-color:#1EA2E4"/>
</linearGradient>
<circle style="fill:url(#SVGID_4_);" cx="24" cy="19" r="8"/>
<linearGradient id="SVGID_5_" gradientUnits="userSpaceOnUse" x1="17.007" y1="31.2096" x2="30.8882" y2="45.0908">
	<stop  offset="0" style="stop-color:#75DAFF"/>
	<stop  offset="1" style="stop-color:#1EA2E4"/>
</linearGradient>
<path style="fill:url(#SVGID_5_);" d="M24,44c5.015,0,9.587-1.859,13.098-4.909C35.107,33.784,30.002,30,24,30
	s-11.107,3.784-13.098,9.091C14.413,42.141,18.985,44,24,44z"/>
</svg>